<svg id="visual" viewBox="0 0 900 600" width="900" height="600" xmlns="http://www.w3.org/2000/svg" xmlns:xlink="http://www.w3.org/1999/xlink" version="1.1"><rect x="0" y="0" width="900" height="600" fill="#001220"></rect><defs><linearGradient id="grad1_0" x1="33.3%" y1="0%" x2="100%" y2="100%"><stop offset="20%" stop-color="#001220" stop-opacity="1"></stop><stop offset="80%" stop-color="#001220" stop-opacity="1"></stop></linearGradient></defs><defs><linearGradient id="grad2_0" x1="0%" y1="0%" x2="66.7%" y2="100%"><stop offset="20%" stop-color="#001220" stop-opacity="1"></stop><stop offset="80%" stop-color="#001220" stop-opacity="1"></stop></linearGradient></defs><g transform="translate(900, 0)"><path d="M0 486.7C-59.8 474.6 -119.5 462.4 -183.3 442.5C-247.1 422.6 -314.9 395 -344.2 344.2C-373.5 293.3 -364.2 219.3 -381.6 158C-398.9 96.8 -442.8 48.4 -486.7 0L0 0Z" fill="#5e9895"></path></g><g transform="translate(0, 600)"><path d="M0 -486.7C50.9 -452.5 101.8 -418.2 166.1 -401C230.4 -383.7 308.1 -383.6 344.2 -344.2C380.3 -304.8 374.9 -226.2 391.7 -162.3C408.6 -98.4 447.7 -49.2 486.7 0L0 0Z" fill="#5e9895"></path></g></svg>