<svg id="visual" viewBox="0 0 900 600" width="900" height="600" xmlns="http://www.w3.org/2000/svg" xmlns:xlink="http://www.w3.org/1999/xlink" version="1.1"><rect x="0" y="0" width="900" height="600" fill="#001220"></rect><defs><linearGradient id="grad1_0" x1="33.3%" y1="0%" x2="100%" y2="100%"><stop offset="20%" stop-color="#001220" stop-opacity="1"></stop><stop offset="80%" stop-color="#001220" stop-opacity="1"></stop></linearGradient></defs><defs><linearGradient id="grad2_0" x1="0%" y1="0%" x2="66.7%" y2="100%"><stop offset="20%" stop-color="#001220" stop-opacity="1"></stop><stop offset="80%" stop-color="#001220" stop-opacity="1"></stop></linearGradient></defs><g transform="translate(900, 0)"><path d="M0 486.7C-64.2 480 -128.5 473.3 -186.3 449.7C-244.1 426.1 -295.4 385.6 -339.4 339.4C-383.4 293.2 -420.1 241.2 -443.5 183.7C-466.8 126.2 -476.8 63.1 -486.7 0L0 0Z" fill="#1CC1A1"></path></g><g transform="translate(0, 600)"><path d="M0 -486.7C68.4 -484.3 136.7 -481.8 186.3 -449.7C235.8 -417.6 266.6 -355.9 309 -309C351.4 -262.1 405.4 -230 437 -181C468.6 -132 477.7 -66 486.7 0L0 0Z" fill="#1CC1A1"></path></g></svg>